<?xml version="1.0" standalone="no"?><!DOCTYPE svg PUBLIC "-//W3C//DTD SVG 1.1//EN" "http://www.w3.org/Graphics/SVG/1.1/DTD/svg11.dtd"><svg t="1548052002644" class="icon" style="" viewBox="0 0 1024 1024" version="1.1" xmlns="http://www.w3.org/2000/svg" p-id="8757" xmlns:xlink="http://www.w3.org/1999/xlink" width="200" height="200"><defs><style type="text/css"></style></defs><path d="M354.688 562.304h189.504c0-52.448-12.896-71.168-20.256-73.056h-163.744c1.856-3.744 7.36-121.76 9.216-224.768h154.56c3.68-39.328-5.504-73.056-22.08-74.912H227.744c3.68-16.864 7.36-35.584 14.72-56.192 9.216-28.096 18.4-56.192 23.936-67.424-3.68-3.744-11.04-1.856-27.616 3.744-18.4 5.632-31.264 11.232-45.984 24.352-9.216 7.488-16.576 18.72-22.08 29.984-16.576 43.072-51.52 166.688-97.504 252.864 71.744-5.632 106.72-46.816 117.76-80.544 5.536-11.232 7.36-24.352 11.04-33.696h95.68c0 43.072-1.856 121.728-9.216 226.624-82.784 0-121.44-1.888-167.424-1.888-25.76 7.488-38.656 48.704-42.304 74.912h202.368c-5.504 39.328-7.36 59.936-22.08 117.984-27.584 86.176-71.744 153.6-132.448 213.536-16.576 18.72-38.656 37.472-60.736 54.304-1.824 1.856-1.824 1.856-1.824 3.744 20.256 18.72 93.824 0 108.544-5.632s27.584-9.376 38.624-18.72c38.656-33.728 86.464-108.64 115.904-221.024 110.4 131.104 134.304 170.432 161.888 202.272h3.68c9.216-31.84 14.72-84.288 3.68-110.496l-7.36-13.12c-53.344-65.568-53.344-65.568-114.08-131.104-34.944 28.096-42.304 35.584-42.304 35.584s7.36-29.952 9.184-43.072c9.216-33.728 9.216-50.592 12.864-84.288M948.96 176.448H599.392c-3.68 0-11.04 5.632-11.04 11.232v664.896c0 3.744 3.68 9.376 11.04 9.376h55.2c3.68 0 9.216 37.472 23.936 76.8 77.28-50.592 110.368-71.168 126.944-76.8h143.52c5.504 0 9.216-3.744 9.216-9.376 0-443.904 1.824-211.648 1.824-666.784 0-5.632-7.36-9.376-11.04-9.376m-64.416 604.992c0 3.744-3.68 5.632-5.504 5.632h-75.424c-1.856 0-3.68 1.888-3.68 1.888-18.4 14.976-45.984 31.84-92 58.048-7.36-26.208-14.72-59.936-16.544-59.936h-22.08c-3.68 0-5.504-1.856-5.504-5.632V256.992c0-3.744 3.68-7.488 5.504-7.488h209.76c1.824 0 5.504 3.744 5.504 5.632V781.44" fill="#ffffff" p-id="8758"></path></svg>