<?xml version="1.0" standalone="no"?><!DOCTYPE svg PUBLIC "-//W3C//DTD SVG 1.1//EN" "http://www.w3.org/Graphics/SVG/1.1/DTD/svg11.dtd"><svg t="1548051991033" class="icon" style="" viewBox="0 0 1024 1024" version="1.1" xmlns="http://www.w3.org/2000/svg" p-id="7981" xmlns:xlink="http://www.w3.org/1999/xlink" width="200" height="200"><defs><style type="text/css"></style></defs><path d="M978.404275 409.561604H455.061338c-25.117645 0-45.499734 20.382089-45.499734 45.499734l-0.031997 113.781333c0 25.117645 20.350092 45.499734 45.499734 45.531731h318.594132c25.117645 0 45.499734 20.382089 45.499734 45.499735v22.749867a136.5312 136.5312 0 0 1-136.5312 136.5312H250.248539a45.499734 45.499734 0 0 1-45.499734-45.499734V341.343999a136.5312 136.5312 0 0 1 136.5312-136.5312L978.308284 204.780802c25.117645 0 45.499734-20.350092 45.499734-45.467738L1023.904009 45.531731h0.031997A45.499734 45.499734 0 0 0 978.468269 0h-0.031997L341.343999 0.031997C152.84967 0.031997 0.031997 152.84967 0.031997 341.343999v637.092273c0 25.117645 20.382089 45.499734 45.499734 45.499734h671.233072a307.171203 307.171203 0 0 0 307.171203-307.171203v-261.671468c0-25.117645-20.382089-45.499734-45.499734-45.499734z" p-id="7982" fill="#ffffff"></path></svg>