<?xml version="1.0" standalone="no"?><!DOCTYPE svg PUBLIC "-//W3C//DTD SVG 1.1//EN" "http://www.w3.org/Graphics/SVG/1.1/DTD/svg11.dtd"><svg t="1548124022113" class="icon" style="" viewBox="0 0 1024 1024" version="1.1" xmlns="http://www.w3.org/2000/svg" p-id="1148" xmlns:xlink="http://www.w3.org/1999/xlink" width="200" height="200"><defs><style type="text/css"></style></defs><path d="M294.56 32h434.88c91.36 0 124.32 9.44 157.76 27.36s59.52 44 77.44 77.44S992 203.2 992 294.56v434.88c0 91.36-9.44 124.32-27.36 157.76s-44 59.52-77.44 77.44S820.8 992 729.44 992H294.56c-91.36 0-124.32-9.44-157.76-27.36s-59.52-44-77.44-77.44S32 820.8 32 729.44V294.56c0-91.36 9.44-124.32 27.36-157.76s44-59.52 77.44-77.44S203.2 32 294.56 32z m-81.12 420.64v400.64h76.64V452.64h-76.64z m43.2-121.76c19.2 35.68 31.68 71.2 37.44 106.88H377.6c-11.52-45.44-25.92-81.12-43.2-106.88h-77.76z m164.8-71.2H513.6v-50.4H346.56c1.92-4 4.8-10.88 8.64-20.8 1.92-7.84 3.84-13.76 5.76-17.76h-86.4c-13.44 53.44-44.16 93.12-92.16 118.72v50.4c63.36-15.84 108.48-42.56 135.2-80.16h28.8c9.6 25.76 15.36 50.4 17.28 74.24h80.64c-5.76-27.68-13.44-52.48-22.88-74.24zM384 420h346.88v326.56c1.92 29.6-11.52 43.52-40.32 41.6h-47.52v59.36H712c67.2 1.92 99.84-28.64 97.76-92V360.64H384v59.36z m270.4 53.44H372.48v299.84h195.68c61.44 1.92 90.24-27.68 86.4-89.12V473.44z m-204.32 53.44h126.56V595.2h-126.56v-68.32z m89.28 192.96h-89.28v-74.24h126.56v35.68c2.08 27.68-10.4 40.48-37.28 38.56z m118.08-513.6c0-1.92 0.96-4.96 2.88-8.96l8.64-26.72h-86.4c-13.44 55.36-43.2 96.96-89.28 124.64v47.52c59.52-15.84 104.64-43.52 135.36-83.04H668.8c9.6 25.76 15.36 50.4 17.28 74.24h77.6c-1.92-19.68-9.6-44.48-23.04-74.24h100.8v-53.44h-184z" p-id="1149" fill="#ffffff"></path></svg>